<svg xmlns="http://www.w3.org/2000/svg" width="512" height="512" viewBox="0 0 512 512">
  <defs>
    <linearGradient id="crgi" x1="0" y1="0" x2="1" y2="1">
      <stop offset="0" stop-color="#4F46E5"/>
      <stop offset="0.6" stop-color="#8B5CF6"/>
      <stop offset="1" stop-color="#C084FC"/>
    </linearGradient>
    <linearGradient id="crsheen" x1="0" y1="0" x2="0" y2="1">
      <stop offset="0" stop-color="#FFFFFF" stop-opacity="0.16"/>
      <stop offset="1" stop-color="#FFFFFF" stop-opacity="0"/>
    </linearGradient>
  </defs>
  <rect width="512" height="512" rx="112" fill="url(#crgi)"/>
  <rect width="512" height="256" rx="112" fill="url(#crsheen)"/>
  <g transform="translate(77,66) scale(3.2) translate(-46,-48)">
    <path d="M 66 48 h 72 a 20 20 0 0 1 20 20 v 52 a 20 20 0 0 1 -20 20 h -50 l -22 20 v -20 h 0 a 20 20 0 0 1 -20 -20 v -52 a 20 20 0 0 1 20 -20 z" fill="#FFFFFF" fill-opacity="0.14"/>
    <path d="M 66 48 h 72 a 20 20 0 0 1 20 20 v 52 a 20 20 0 0 1 -20 20 h -50 l -22 20 v -20 h 0 a 20 20 0 0 1 -20 -20 v -52 a 20 20 0 0 1 20 -20 z" fill="none" stroke="#FFFFFF" stroke-width="7" stroke-linejoin="round"/>
    <path d="M 102 72 L 128 92 L 128 122 L 76 122 L 76 92 Z" fill="none" stroke="#FFFFFF" stroke-width="7" stroke-linejoin="round" stroke-linecap="round"/>
    <path d="M 134 56 q 2 8 10 10 q -8 2 -10 10 q -2 -8 -10 -10 q 8 -2 10 -10 z" fill="#FFFFFF"/>
  </g>
</svg>
